#tb 0: 1/25
0,          0,          0,        1, 24576000, 0x5b01ceed
0,          1,          1,        1, 24576000, 0x043fa798
0,          2,          2,        1, 24576000, 0x9ec62721
0,          3,          3,        1, 24576000, 0x5533793b
0,          4,          4,        1, 24576000, 0x125f859e
0,          5,          5,        1, 24576000, 0xe3b916b4
0,          6,          6,        1, 24576000, 0x1fc1a62c
0,          7,          7,        1, 24576000, 0xe3507948
